# 3ds Max Wavefront OBJ Exporter v0.97b - (c)2007 guruware
# File Created: 06.10.2015 01:10:31

#
# object Cylinder001
#

v  20.1071 0.0000 0.1070
v  19.4256 0.0000 -5.0693
v  19.4256 2.0000 -5.0693
v  20.1071 2.0000 0.1070
v  17.4276 0.0000 -9.8930
v  17.4276 2.0000 -9.8930
v  14.2492 0.0000 -14.0351
v  14.2492 2.0000 -14.0351
v  10.1071 0.0000 -17.2135
v  10.1071 2.0000 -17.2135
v  5.2834 0.0000 -19.2115
v  5.2834 2.0000 -19.2115
v  0.1071 0.0000 -19.8930
v  0.1071 2.0000 -19.8930
v  -5.0693 0.0000 -19.2115
v  -5.0693 2.0000 -19.2115
v  -9.8929 0.0000 -17.2135
v  -9.8929 2.0000 -17.2135
v  -14.0351 -0.0000 -14.0351
v  -14.0351 2.0000 -14.0351
v  -17.2135 -0.0000 -9.8930
v  -17.2134 2.0000 -9.8930
v  -19.2115 -0.0000 -5.0693
v  -19.2115 2.0000 -5.0693
v  -19.8929 -0.0000 0.1070
v  -19.8929 2.0000 0.1070
v  -19.2115 -0.0000 5.2834
v  -19.2115 2.0000 5.2834
v  -17.2135 -0.0000 10.1070
v  -17.2135 2.0000 10.1070
v  -14.0351 -0.0000 14.2492
v  -14.0351 2.0000 14.2492
v  -9.8929 -0.0000 17.4276
v  -9.8929 2.0000 17.4275
v  -5.0693 -0.0000 19.4256
v  -5.0693 2.0000 19.4256
v  0.1071 -0.0000 20.1070
v  0.1070 2.0000 20.1070
v  5.2834 -0.0000 19.4256
v  5.2834 2.0000 19.4256
v  10.1071 0.0000 17.4276
v  10.1070 2.0000 17.4276
v  14.2492 0.0000 14.2492
v  14.2492 2.0000 14.2492
v  17.4276 0.0000 10.1070
v  17.4276 2.0000 10.1071
v  19.4256 0.0000 5.2834
v  19.4256 2.0000 5.2834
# 48 vertices

vn 1.0000 -0.0000 -0.0000
vn 0.9659 -0.0000 -0.2588
vn 1.0000 -0.0000 0.0000
vn 0.8660 -0.0000 -0.5000
vn 0.7071 -0.0000 -0.7071
vn 0.5000 -0.0000 -0.8660
vn 0.2588 0.0000 -0.9659
vn -0.0000 0.0000 -1.0000
vn 0.0000 0.0000 -1.0000
vn -0.2588 0.0000 -0.9659
vn -0.5000 0.0000 -0.8660
vn -0.7071 0.0000 -0.7071
vn -0.8660 0.0000 -0.5000
vn -0.9659 0.0000 -0.2588
vn -1.0000 0.0000 -0.0000
vn -0.9659 0.0000 0.2588
vn -0.8660 0.0000 0.5000
vn -0.7071 0.0000 0.7071
vn -0.5000 0.0000 0.8660
vn -0.2588 0.0000 0.9659
vn -0.0000 -0.0000 1.0000
vn -0.0000 0.0000 1.0000
vn 0.2588 -0.0000 0.9659
vn 0.5000 -0.0000 0.8660
vn 0.7071 -0.0000 0.7071
vn 0.8660 -0.0000 0.5000
vn 0.9659 -0.0000 0.2588
vn 0.0000 1.0000 -0.0000
vn 0.0000 -1.0000 -0.0000
vn -0.0000 -1.0000 -0.0000
# 30 vertex normals

vt 0.7369 0.9839 0.0000
vt 0.6496 0.9839 0.0000
vt 0.6496 0.9502 0.0000
vt 0.7369 0.9502 0.0000
vt 0.5684 0.9839 0.0000
vt 0.5684 0.9502 0.0000
vt 0.4986 0.9839 0.0000
vt 0.4986 0.9502 0.0000
vt 0.4288 0.9839 0.0000
vt 0.4288 0.9502 0.0000
vt 0.3475 0.9839 0.0000
vt 0.3475 0.9502 0.0000
vt 0.2603 0.9839 0.0000
vt 0.2603 0.9502 0.0000
vt 0.1731 0.9839 0.0000
vt 0.1731 0.9502 0.0000
vt 0.0918 0.9839 0.0000
vt 0.0918 0.9502 0.0000
vt 0.0221 0.9839 0.0000
vt 0.0221 0.9502 0.0000
vt 0.9751 0.9375 0.0000
vt 0.9053 0.9375 0.0000
vt 0.9053 0.9038 0.0000
vt 0.9751 0.9038 0.0000
vt 0.8241 0.9375 0.0000
vt 0.8241 0.9038 0.0000
vt 0.7369 0.9375 0.0000
vt 0.7369 0.9038 0.0000
vt 0.6496 0.9375 0.0000
vt 0.6496 0.9038 0.0000
vt 0.5684 0.9375 0.0000
vt 0.5684 0.9038 0.0000
vt 0.4986 0.9375 0.0000
vt 0.4986 0.9038 0.0000
vt 0.4288 0.9375 0.0000
vt 0.4288 0.9038 0.0000
vt 0.3475 0.9375 0.0000
vt 0.3475 0.9038 0.0000
vt 0.2603 0.9375 0.0000
vt 0.2603 0.9038 0.0000
vt 0.1731 0.9375 0.0000
vt 0.1731 0.9038 0.0000
vt 0.0918 0.9375 0.0000
vt 0.0918 0.9038 0.0000
vt 0.0221 0.9375 0.0000
vt 0.0221 0.9038 0.0000
vt 0.9751 0.9839 0.0000
vt 0.9053 0.9839 0.0000
vt 0.9053 0.9502 0.0000
vt 0.9751 0.9502 0.0000
vt 0.8241 0.9839 0.0000
vt 0.8241 0.9502 0.0000
vt 0.8609 0.1769 0.0000
vt 0.9193 0.2774 0.0000
vt 0.9496 0.3897 0.0000
vt 0.9499 0.5059 0.0000
vt 0.9202 0.6183 0.0000
vt 0.8623 0.7191 0.0000
vt 0.7803 0.8016 0.0000
vt 0.6798 0.8600 0.0000
vt 0.5676 0.8904 0.0000
vt 0.4513 0.8907 0.0000
vt 0.3389 0.8609 0.0000
vt 0.2381 0.8030 0.0000
vt 0.1557 0.7210 0.0000
vt 0.0973 0.6205 0.0000
vt 0.0669 0.5083 0.0000
vt 0.0666 0.3920 0.0000
vt 0.0964 0.2796 0.0000
vt 0.1542 0.1788 0.0000
vt 0.2362 0.0964 0.0000
vt 0.3367 0.0380 0.0000
vt 0.4490 0.0076 0.0000
vt 0.5652 0.0073 0.0000
vt 0.6776 0.0371 0.0000
vt 0.7784 0.0949 0.0000
# 76 texture coords

g Cylinder001
s 8
f 1/1/1 2/2/2 3/3/2 
f 3/3/2 4/4/3 1/1/1 
f 2/2/2 5/5/4 6/6/4 
f 6/6/4 3/3/2 2/2/2 
f 5/5/4 7/7/5 8/8/5 
f 8/8/5 6/6/4 5/5/4 
f 7/7/5 9/9/6 10/10/6 
f 10/10/6 8/8/5 7/7/5 
f 9/9/6 11/11/7 12/12/7 
f 12/12/7 10/10/6 9/9/6 
f 11/11/7 13/13/8 14/14/9 
f 14/14/9 12/12/7 11/11/7 
f 13/13/8 15/15/10 16/16/10 
f 16/16/10 14/14/9 13/13/8 
f 15/15/10 17/17/11 18/18/11 
f 18/18/11 16/16/10 15/15/10 
f 17/17/11 19/19/12 20/20/12 
f 20/20/12 18/18/11 17/17/11 
f 19/21/12 21/22/13 22/23/13 
f 22/23/13 20/24/12 19/21/12 
f 21/22/13 23/25/14 24/26/14 
f 24/26/14 22/23/13 21/22/13 
f 23/25/14 25/27/15 26/28/15 
f 26/28/15 24/26/14 23/25/14 
f 25/27/15 27/29/16 28/30/16 
f 28/30/16 26/28/15 25/27/15 
f 27/29/16 29/31/17 30/32/17 
f 30/32/17 28/30/16 27/29/16 
f 29/31/17 31/33/18 32/34/18 
f 32/34/18 30/32/17 29/31/17 
f 31/33/18 33/35/19 34/36/19 
f 34/36/19 32/34/18 31/33/18 
f 33/35/19 35/37/20 36/38/20 
f 36/38/20 34/36/19 33/35/19 
f 35/37/20 37/39/21 38/40/22 
f 38/40/22 36/38/20 35/37/20 
f 37/39/21 39/41/23 40/42/23 
f 40/42/23 38/40/22 37/39/21 
f 39/41/23 41/43/24 42/44/24 
f 42/44/24 40/42/23 39/41/23 
f 41/43/24 43/45/25 44/46/25 
f 44/46/25 42/44/24 41/43/24 
f 43/47/25 45/48/26 46/49/26 
f 46/49/26 44/50/25 43/47/25 
f 45/48/26 47/51/27 48/52/27 
f 48/52/27 46/49/26 45/48/26 
f 47/51/27 1/1/1 4/4/3 
f 4/4/3 48/52/27 47/51/27 
s 1
f 3/53/28 6/54/28 8/55/28 
f 8/55/28 10/56/28 12/57/28 
f 12/57/28 14/58/28 16/59/28 
f 8/55/28 12/57/28 16/59/28 
f 16/59/28 18/60/28 20/61/28 
f 20/61/28 22/62/28 24/63/28 
f 16/59/28 20/61/28 24/63/28 
f 24/63/28 26/64/28 28/65/28 
f 28/65/28 30/66/28 32/67/28 
f 24/63/28 28/65/28 32/67/28 
f 16/59/28 24/63/28 32/67/28 
f 32/67/28 34/68/28 36/69/28 
f 36/69/28 38/70/28 40/71/28 
f 32/67/28 36/69/28 40/71/28 
f 40/71/28 42/72/28 44/73/28 
f 44/73/28 46/74/28 48/75/28 
f 40/71/28 44/73/28 48/75/28 
f 32/67/28 40/71/28 48/75/28 
f 16/59/28 32/67/28 48/75/28 
f 8/55/28 16/59/28 48/75/28 
f 3/53/28 8/55/28 48/75/28 
f 4/76/28 3/53/28 48/75/28 
f 23/53/29 21/54/30 19/55/29 
f 19/55/29 17/56/29 15/57/29 
f 15/57/29 13/58/29 11/59/29 
f 19/55/29 15/57/29 11/59/29 
f 11/59/29 9/60/29 7/61/29 
f 7/61/29 5/62/29 2/63/29 
f 11/59/29 7/61/29 2/63/29 
f 2/63/29 1/64/30 47/65/29 
f 47/65/29 45/66/30 43/67/29 
f 2/63/29 47/65/29 43/67/29 
f 11/59/29 2/63/29 43/67/29 
f 43/67/29 41/68/30 39/69/29 
f 39/69/29 37/70/29 35/71/29 
f 43/67/29 39/69/29 35/71/29 
f 35/71/29 33/72/29 31/73/29 
f 31/73/29 29/74/29 27/75/29 
f 35/71/29 31/73/29 27/75/29 
f 43/67/29 35/71/29 27/75/29 
f 11/59/29 43/67/29 27/75/29 
f 19/55/29 11/59/29 27/75/29 
f 23/53/29 19/55/29 27/75/29 
f 25/76/29 23/53/29 27/75/29 
# 92 faces

